<?xml version="1.0" encoding="UTF-8"?>
<svg width="24px" height="24px" viewBox="0 0 24 24" version="1.1" xmlns="http://www.w3.org/2000/svg" xmlns:xlink="http://www.w3.org/1999/xlink">
    <!-- Generator: Sketch 48.2 (47327) - http://www.bohemiancoding.com/sketch -->
    <title>potato</title>
    <desc>Created with Sketch.</desc>
    <defs></defs>
    <g id="Products" stroke="none" stroke-width="1" fill="none" fill-rule="evenodd" transform="translate(-15.000000, -20.000000)">
        <g id="potato" transform="translate(15.000000, 20.000000)">
            <g>
                <g id="#8b6f3cff" fill="#550000" fill-rule="nonzero">
                    <path d="M16.0999692,0.0425269646 C16.8946687,-0.0188597843 17.6901079,0.137195686 18.4330354,0.414175655 C19.1937134,0.698551618 19.9029892,1.11124807 20.5501387,1.59938367 C22.0829584,2.73097072 23.1572265,4.43315871 23.6198459,6.27328197 C23.7318952,6.70520801 23.8280431,7.14231125 23.8687211,7.58755008 C23.9545146,8.09861325 23.9659784,8.61744222 23.9674576,9.13405239 C23.9589522,9.56265023 23.9534052,9.99235747 23.8861017,10.4165177 C23.7795994,11.5277658 23.510755,12.6190447 23.1502003,13.6740832 C22.6069646,15.2416641 21.8285362,16.7301079 20.8271186,18.0543606 C20.1023112,19.0187982 19.2488136,19.88302 18.3143297,20.6440678 C17.1542681,21.5807704 15.8514638,22.3362712 14.4717411,22.8998459 C13.7210478,23.1871803 12.956302,23.4434515 12.1712173,23.6191063 C11.4722958,23.7699846 10.7641294,23.8787057 10.0518952,23.9404622 C9.49978428,23.9693066 8.94619414,23.9748536 8.3940832,23.9478582 C6.90489985,23.8383975 5.41867488,23.4671186 4.10921418,22.7360247 C2.92067797,22.0622496 1.90890601,21.0759938 1.22477658,19.8911556 C0.740338983,19.0846225 0.343543914,18.2130046 0.15568567,17.2866564 C0.0092449923,16.6646533 -0.0044375963,16.0149153 0.0754391371,15.3825578 C0.195993837,14.6200308 0.469645609,13.8826502 0.873466872,13.2244068 C1.19075501,12.6837596 1.59050847,12.1978428 2.00172573,11.726718 C2.23765794,11.4822804 2.46804314,11.2322958 2.70175655,10.9852696 C3.42101695,10.2859784 4.16394453,9.61146379 4.91204931,8.94286595 C5.32918336,8.57269646 5.74151002,8.19661017 6.14385208,7.81016949 C6.49257319,7.50471495 6.79174114,7.15044684 7.11679507,6.82132512 C7.69959938,6.18379045 8.27093991,5.53590139 8.85411402,4.89836672 C9.51679507,4.14508475 10.2327273,3.44135593 10.9457011,2.73614792 C11.8395069,1.90520801 12.8124499,1.13898305 13.9185208,0.610539291 C14.6074576,0.304345146 15.3440986,0.0843143297 16.0999692,0.0425269646 Z M15.7349769,0.394576271 C15.3940216,0.451525424 15.0508475,0.513281972 14.7254237,0.633097072 C13.5616641,1.03543914 12.5428659,1.76061633 11.6194761,2.56012327 C11.1065639,2.9946379 10.6506009,3.48869029 10.1676425,3.9550077 C9.39882897,4.74083205 8.67217257,5.56622496 7.93664099,6.38311248 C7.55352851,6.81281972 7.16967643,7.24289676 6.76622496,7.65411402 C6.39716487,8.01244992 6.02588598,8.36856703 5.6398151,8.70915254 C4.98896764,9.30342065 4.33553159,9.89510015 3.68024653,10.4845609 C2.98243451,11.1420647 2.28721109,11.8102928 1.69775039,12.5691217 C1.04690293,13.4008012 0.532881356,14.3674576 0.380154083,15.4228659 C0.283636364,16.1432357 0.329121726,16.8869029 0.541386749,17.5832357 C0.742927581,18.2762404 1.04172573,18.9400308 1.40597843,19.5620339 C2.19845917,21.0404931 3.53306626,22.1972265 5.06958398,22.8532512 C6.46594761,23.4393837 7.99322034,23.6967643 9.50459168,23.6527581 C10.0489368,23.6472111 10.5884746,23.5647458 11.1280123,23.5022496 C11.9008937,23.3772573 12.6634206,23.1901387 13.4093066,22.9530971 C14.601171,22.567396 15.7394145,22.0189831 16.794453,21.345208 C17.8128814,20.7028659 18.7392296,19.9222188 19.5712789,19.0535593 C21.4616949,17.032604 22.768567,14.4820955 23.3506317,11.7795994 C23.4478891,11.3717103 23.516302,10.9575347 23.5562404,10.539661 C23.6534977,9.81411402 23.6797535,9.07932203 23.6364869,8.34822804 C23.6131895,7.99248074 23.553282,7.64080123 23.5111248,7.28727273 C23.4656394,6.86718028 23.329923,6.46520801 23.2315562,6.05657935 C23.0192912,5.31882897 22.7057011,4.60955316 22.2974422,3.9594453 C21.6602773,2.91254237 20.7468721,2.04869029 19.7088444,1.40486903 C19.1689368,1.05910632 18.5868721,0.777688752 17.975963,0.582064715 C17.252265,0.368320493 16.4841911,0.286594761 15.7349769,0.394576271 Z" id="Shape"></path>
                    <path d="M17.2526348,6.34391371 C17.4789522,6.25922958 17.7352234,6.50514638 17.6472111,6.73405239 C17.5836055,6.97775039 17.2064099,7.02064715 17.0851156,6.80431433 C16.9775039,6.64234206 17.0718028,6.40234206 17.2526348,6.34391371 Z" id="Shape"></path>
                    <path d="M14.4007396,8.22693374 C14.7816333,8.13818182 15.1651156,8.49281972 15.1399692,8.874453 C15.1262866,9.17842835 14.8703852,9.45023112 14.5641911,9.46872111 C14.211772,9.50311248 13.881171,9.18878274 13.8833898,8.83784284 C13.8911556,8.55013867 14.1178428,8.2816641 14.4007396,8.22693374 Z" id="Shape"></path>
                    <path d="M17.9770724,10.740832 C18.1922958,10.7293683 18.3705393,10.9760247 18.2729122,11.1738675 C18.1856394,11.4134977 17.7832974,11.4286595 17.6993529,11.1801541 C17.6124499,10.9867488 17.7596302,10.7360247 17.9770724,10.740832 Z" id="Shape"></path>
                    <path d="M10.2974422,16.4335285 C10.50453,16.3355316 10.768567,16.519322 10.7330663,16.750077 C10.7282589,16.9645609 10.4786441,17.0836364 10.2933744,17.0033898 C10.0533744,16.9194453 10.059661,16.517473 10.2974422,16.4335285 Z" id="Shape"></path>
                    <path d="M6.52844376,18.9548228 C6.62496148,18.9208012 6.74181818,18.9259784 6.82576271,18.9888444 C6.96813559,19.1001541 6.98181818,19.3383051 6.85756549,19.4681048 C6.7148228,19.6060401 6.44560863,19.5601849 6.3609245,19.3786133 C6.27587057,19.224037 6.3631433,19.0114022 6.52844376,18.9548228 Z" id="Shape"></path>
                    <path d="M10.3336826,20.8363636 C10.4461017,20.8119569 10.576641,20.833775 10.6583667,20.9195686 C10.7696764,21.0412327 10.7589522,21.2520185 10.6380277,21.3633282 C10.5056394,21.4883205 10.2586133,21.4679815 10.1628351,21.308228 C10.0629892,21.1455162 10.1232666,20.8700154 10.3336826,20.8363636 Z" id="Shape"></path>
                </g>
                <g id="#f4c77aff" transform="translate(0.291498, 0.291498)" fill="#F2D1AB" fill-rule="nonzero">
                    <path d="M15.4693025,0.0617181134 C16.2199805,-0.0461961927 16.9895552,0.035478676 17.7146671,0.249089871 C18.3267698,0.444592158 18.9099718,0.725834579 19.4509342,1.0713821 C20.4909901,1.71480267 21.40618,2.57811712 22.0445898,3.62436849 C22.4536463,4.27407175 22.7678491,4.98290613 22.9805289,5.72019736 C23.0790878,6.1285717 23.2150694,6.53029379 23.2606437,6.95012479 C23.3028832,7.30343328 23.3629078,7.65489391 23.3862507,8.01041981 C23.4296018,8.74105879 23.4032947,9.47539347 23.3058474,10.2004889 C23.265831,10.6181025 23.1972844,11.0320204 23.099837,11.4396556 C22.5166351,14.1404698 21.2072096,16.6893909 19.3131,18.7090885 C18.479425,19.5772073 17.5512668,20.3573686 16.5308487,20.9993109 C15.4737488,21.6726666 14.3332814,22.2207382 13.1390883,22.6061993 C12.391745,22.8430933 11.6277282,23.0300955 10.8533367,23.15501 C10.3127448,23.2174673 9.77215292,23.2998813 9.22674422,23.3054248 C7.71241993,23.3494036 6.18216317,23.0921832 4.78307129,22.5064155 C3.24355148,21.8507991 1.9063368,20.6947856 1.11230769,19.2172466 C0.74734331,18.5956306 0.447961359,17.9322533 0.246026751,17.23968 C0.0333469994,16.5437805 -0.0122272331,15.8005762 0.0844790652,15.0806547 C0.23750474,14.0259032 0.752530621,13.0598485 1.40464972,12.2286866 C1.99526213,11.4703299 2.6918439,10.8025177 3.39101932,10.145423 C4.04758469,9.5563292 4.70229744,8.96501793 5.35441654,8.37111968 C5.74124174,8.03074613 6.11324604,7.67485066 6.48302721,7.31673778 C6.88726695,6.90577645 7.27186901,6.47596707 7.65573003,6.04652727 C8.39269871,5.23014815 9.12077487,4.40526893 9.89109056,3.61993366 C10.3749926,3.15390647 10.8318465,2.66016156 11.3457608,2.22591735 C12.2709547,1.426908 13.2917435,0.702182128 14.4577769,0.300090468 C14.7838364,0.180349936 15.127681,0.118631823 15.4693025,0.0617181134 Z M16.9899257,6.00735289 C16.8087403,6.06574488 16.7142572,6.30559551 16.8220791,6.46746697 C16.9436104,6.68366515 17.3215431,6.64079509 17.3852729,6.39724876 C17.4734572,6.16848521 17.2166853,5.92272147 16.9899257,6.00735289 Z M14.1324584,7.889201 C13.8490089,7.94389729 13.6218787,8.21220478 13.6140978,8.49972988 C13.6118746,8.85045138 13.9431215,9.16458549 14.2962292,9.13021552 C14.6030216,9.11173704 14.8594229,8.84010343 14.8731323,8.53631727 C14.8983278,8.1549215 14.5140962,7.80050431 14.1324584,7.889201 Z M17.7157787,10.4015347 C17.4979116,10.3967303 17.3504438,10.6472985 17.4375165,10.8405834 C17.5216251,11.0889341 17.9247532,11.0737817 18.0121965,10.8343007 C18.1100143,10.636581 17.9314226,10.3900781 17.7157787,10.4015347 Z M10.0211439,16.0906883 C9.78289807,16.1745805 9.77659919,16.5763026 10.0170681,16.6601949 C10.2026997,16.7403915 10.4528022,16.6213901 10.457619,16.4070398 C10.4931892,16.1764284 10.2286363,15.9927523 10.0211439,16.0906883 Z M6.24478143,18.6104134 C6.079158,18.6669575 5.99171475,18.87946 6.07693486,19.0339401 C6.16178445,19.2153987 6.43152462,19.2612254 6.5745462,19.1233759 C6.69904166,18.993657 6.68533234,18.7556542 6.54268129,18.6444138 C6.45857275,18.581587 6.34148773,18.576413 6.24478143,18.6104134 Z M10.057455,20.4907832 C9.84662789,20.524414 9.78623277,20.7997434 9.88627377,20.962354 C9.98223902,21.122008 10.2297479,21.1423343 10.3623948,21.0174198 C10.4835556,20.9061794 10.4943007,20.6955247 10.3827735,20.5739364 C10.3008881,20.4881962 10.1700938,20.4663916 10.057455,20.4907832 Z" id="Shape"></path>
                </g>
            </g>
        </g>
    </g>
</svg>