<?xml version="1.0" encoding="UTF-8"?>
<svg width="32px" height="32px" viewBox="0 0 32 32" version="1.1" xmlns="http://www.w3.org/2000/svg" xmlns:xlink="http://www.w3.org/1999/xlink">
    <!-- Generator: Sketch 49.1 (51147) - http://www.bohemiancoding.com/sketch -->
    <title>recycle-bin</title>
    <desc>Created with Sketch.</desc>
    <defs></defs>
    <g id="recycle-bin" stroke="none" stroke-width="1" fill="none" fill-rule="evenodd">
        <g transform="translate(6.000000, 0.000000)" fill="#000000" fill-rule="nonzero" id="Shape">
            <path d="M18.9204444,4.5741352 C17.1202963,4.5091655 15.3200741,4.61061072 13.5165926,4.70288112 C14.2231852,2.05329604 11.7337037,-0.492904429 9.08007407,0.18551049 C7.83674074,0.503421911 6.84948148,1.42381352 6.51837037,2.67867599 C6.35474074,3.29838695 6.39407407,4.01849883 6.64096296,4.6296317 C4.47614815,4.39362238 2.15577778,4.12367366 0.404296296,5.32535198 C-0.182444444,5.72792541 -0.136888889,6.69374359 0.608148148,6.89551515 C3.42333333,7.65814452 6.76888889,7.52037296 9.67088889,7.53939394 C12.8015556,7.55990676 16.1846667,7.58825175 19.2061481,6.69941259 C20.3814074,6.35367832 20.1319259,4.61792075 18.9204444,4.5741352 Z M8.794,4.79172028 C8.80785185,4.03311888 8.77488889,3.15606527 9.58925926,2.86634965 C10.4763704,2.55097436 11.0617037,3.37767832 10.8596296,4.19035897 C10.8287407,4.4141352 10.8454074,4.61851748 10.8914815,4.80559441 C10.1932593,4.82088578 9.494,4.81551515 8.794,4.79172028 Z"></path>
            <path d="M18.9162963,10.11931 C18.9102963,9.86465268 18.8011852,9.65407925 18.6420741,9.49281119 C18.6548148,8.92076457 18.3017778,8.36900699 17.5672593,8.42025175 C12.5876296,8.76822378 7.29496296,8.39220513 2.40362963,9.29245688 C1.99081481,9.36839161 1.81792593,9.78476457 1.86748148,10.1619021 C0.754444444,13.1980979 1.30466667,16.7327925 1.41533333,19.9228718 C1.5297037,23.2117855 1.42881481,26.6293706 2.18451852,29.8409324 C2.20311111,29.9197016 2.24044444,29.9740047 2.26985185,30.039049 C2.24244444,30.1575758 2.23325926,30.2778182 2.26837037,30.3882145 C2.86755556,32.2715152 6.09444444,31.9133986 7.60733333,31.9018368 C10.5498519,31.879683 14.3359259,32.3089604 17.1025185,31.2742937 C17.5277037,31.1152634 17.7562963,30.7298462 17.7614815,30.3501725 C18.0737778,30.1971841 18.3314074,29.8964289 18.3906667,29.424634 C19.1751852,23.1820233 19.0606667,16.4137622 18.9162963,10.11931 Z M5.1362963,28.1371748 C4.82548148,28.1519441 4.5142963,28.1578368 4.20340741,28.1762611 C4.3277037,25.2017529 3.97466667,22.1414639 3.87718519,19.1800839 C3.8062963,17.025641 3.96340741,14.7583403 3.66081481,12.6047179 C4.0657037,12.7312261 4.50614815,12.7757576 4.95814815,12.7947786 C5.38407407,17.9421538 5.11637037,22.9851748 5.1362963,28.1371748 Z M6.38185185,28.0849604 C7.50503704,23.1365967 7.29333333,17.8205688 6.65651852,12.7925408 C6.72977778,12.7915711 6.8037037,12.7888858 6.87681481,12.788662 C7.08266667,12.7882145 7.29111111,12.8049231 7.49777778,12.8085781 C7.37140741,16.1036084 7.54274074,19.4250443 7.69296296,22.7134359 C7.74807407,23.9224242 7.42466667,26.4751142 7.8902963,28.052662 C7.38748148,28.0646713 6.8842963,28.067655 6.38185185,28.0849604 Z M9.26037037,28.0233473 C9.3062963,27.2788438 9.45496296,26.1714499 9.4617037,25.9021725 C9.49925926,24.4162238 9.48459259,22.9245315 9.48214815,21.437986 C9.47785185,18.5842424 9.48607407,15.7130443 9.26407407,12.8652681 C9.62681481,12.8861538 9.99037037,12.9130816 10.3537037,12.9382937 C10.0844444,17.9008298 10.0388889,23.0874406 10.5486667,27.9997016 C10.1192593,28.0070862 9.68977778,28.0155897 9.26037037,28.0233473 Z M11.7157778,27.9782191 C12.3155556,23.1148159 12.3985926,17.989669 12.2446667,13.0656224 C12.551037,13.0862098 12.8554815,13.0959814 13.1612593,13.1132867 C12.86,18.0041399 12.7585185,23.0545455 13.1503704,27.9371935 C12.6721481,27.9482331 12.1942963,27.9691189 11.7157778,27.9782191 Z M16.1065185,27.8528298 C15.5862963,27.8758788 15.065037,27.8812494 14.5446667,27.8973613 C15.0996296,23.0614825 15.1783704,18.0456131 15.051037,13.1760186 C15.572,13.1822844 16.0935556,13.1922051 16.6099259,13.1667692 C16.0713333,18.0004103 15.7571111,23.0726713 16.1065185,27.8528298 Z"></path>
        </g>
    </g>
</svg>