<?xml version="1.0" encoding="UTF-8"?>
<svg width="136px" height="25px" viewBox="0 0 136 25" version="1.1" xmlns="http://www.w3.org/2000/svg" xmlns:xlink="http://www.w3.org/1999/xlink">
    <!-- Generator: Sketch 48.2 (47327) - http://www.bohemiancoding.com/sketch -->
    <title>PotatoStoreLogo</title>
    <desc>Created with Sketch.</desc>
    <defs></defs>
    <g id="Symbols" stroke="none" stroke-width="1" fill="none" fill-rule="evenodd">
        <g id="PotatoStoreLogo" fill="#171E27">
            <path d="M17.21,10.58 C17.21,11.0200022 17.1800003,11.4099983 17.12,11.75 C16.3399961,16.3700231 14.150018,18.68 10.55,18.68 C8.7099908,18.68 7.0600073,18.2100047 5.6,17.27 L5.6,17.9 C5.5799999,19.2400067 5.6999987,20.1599975 5.96,20.66 C6.3400019,21.3600035 6.53,21.7599995 6.53,21.86 C6.53,22.260002 6.37500155,22.6099985 6.065,22.91 C5.75499845,23.2100015 5.400002,23.36 5,23.36 C4.0999955,23.36 3.4900016,23.0400032 3.17,22.4 C2.9899991,22.0199981 2.8700003,21.3100052 2.81,20.27 C2.7699998,19.5899966 2.75,18.8100044 2.75,17.93 C2.75,17.5899983 2.79499955,17.0800034 2.885,16.4 C2.97500045,15.7199966 3.02,15.2000018 3.02,14.84 L3.02,12.8 C2.9999999,12.199997 3.0399995,11.3150059 3.14,10.145 C3.2400005,8.97499415 3.29,8.1100028 3.29,7.55 L3.29,4.85 C3.29,4.8099998 3.190001,4.2700052 2.99,3.23 C3.5100026,2.7499976 3.9999977,2.51 4.46,2.51 C5.0000027,2.51 5.4299984,2.70499805 5.75,3.095 C6.0700016,3.48500195 6.23,3.9599972 6.23,4.52 C6.23,4.6600007 6.2200001,4.7999993 6.2,4.94 C7.5200066,3.1999913 9.1899899,2.33 11.21,2.33 C13.1100095,2.33 14.6099945,3.0399929 15.71,4.46 C16.6900049,5.7400064 17.18,7.3599902 17.18,9.32 L17.18,9.95 C17.2000001,10.2300014 17.21,10.4399993 17.21,10.58 Z M14.51,10.1 C14.51,8.7199931 14.3000021,7.5400049 13.88,6.56 C13.2999971,5.2399934 12.410006,4.58 11.21,4.58 C9.6699923,4.58 8.3500055,5.5199906 7.25,7.4 C6.2699951,9.0400082 5.78,10.6899917 5.78,12.35 C5.78,15.1300139 7.179986,16.52 9.98,16.52 C11.4800075,16.52 12.5799965,15.8700065 13.28,14.57 C13.680002,13.8499964 14.0599982,12.5400095 14.42,10.64 C14.4800003,10.2599981 14.51,10.0799999 14.51,10.1 Z M30.08,17.09 C30.08,18.890009 29.6300045,20.4299936 28.73,21.71 C27.6899948,23.1700073 26.3100086,23.9 24.59,23.9 C22.8299912,23.9 21.5000045,23.300006 20.6,22.1 C19.7799959,21.0399947 19.37,19.6000091 19.37,17.78 C19.37,15.979991 19.8199955,14.280008 20.72,12.68 C21.7600052,10.7799905 23.1099917,9.83 24.77,9.83 C25.2900026,9.83 25.9399961,10.0599977 26.72,10.52 C28.9600112,11.8600067 30.08,14.0499848 30.08,17.09 Z M27.44,17.03 C27.44,13.9699847 26.7000074,12.44 25.22,12.44 C24.1599947,12.44 23.3600027,13.0899935 22.82,14.39 C22.419998,15.3700049 22.22,16.4799938 22.22,17.72 C22.22,20.3800133 23.0099921,21.71 24.59,21.71 C25.6100051,21.71 26.3699975,21.1600055 26.87,20.06 C27.2500019,19.2199958 27.44,18.2100059 27.44,17.03 Z M38.54,12.26 C38.54,12.8000027 37.7100083,13.1799989 36.05,13.4 C36.0099998,13.8400022 35.99,14.8399922 35.99,16.4 L35.99,18.38 C35.99,18.780002 36.0549994,19.3699961 36.185,20.15 C36.3150007,20.9300039 36.38,21.5099981 36.38,21.89 C36.38,22.2100016 36.2200016,22.4949988 35.9,22.745 C35.5799984,22.9950013 35.2600016,23.12 34.94,23.12 C34.4399975,23.12 34.0200017,22.6900043 33.68,21.83 C33.4199987,21.1699967 33.29,20.5300031 33.29,19.91 L33.29,13.55 C32.3699954,13.4099993 31.8400007,13.3200002 31.7,13.28 C31.1799974,13.1199992 30.92,12.8900015 30.92,12.59 C30.92,12.5099996 30.9399998,12.4200005 30.98,12.32 C31.5000026,11.5799963 32.0799968,11.21 32.72,11.21 L32.9,11.21 C32.9800004,11.2300001 33.0399998,11.24 33.08,11.24 C33.5000021,11.24 33.7000001,10.7500049 33.68,9.77 L33.68,7.58 C33.5599994,7.3599989 33.5,7.1700008 33.5,7.01 C33.5,6.7499987 33.6549985,6.51500105 33.965,6.305 C34.2750016,6.09499895 34.5699986,5.99 34.85,5.99 C35.2700021,5.99 35.6699981,6.18499805 36.05,6.575 C36.4300019,6.96500195 36.62,7.3799978 36.62,7.82 C36.62,8.3000024 36.5450008,8.77499765 36.395,9.245 C36.2449993,9.71500235 36.1799999,10.1999975 36.2,10.7 L36.2,10.82 C37.7600078,10.9800008 38.54,11.459996 38.54,12.26 Z M49.7600001,17.9 C49.7600001,20.4800129 49.6800009,22.2999947 49.5200001,23.36 C49.4199996,23.9800031 49.0000038,24.29 48.2600001,24.29 C47.1399945,24.29 46.6399995,23.7300056 46.7600001,22.61 C45.7599951,23.0900024 44.7200055,23.33 43.6400001,23.33 C42.5999949,23.33 41.6100048,23.0700026 40.6700001,22.55 C39.5499945,21.9299969 38.9900001,21.1400048 38.9900001,20.18 C38.9900001,19.2399953 39.6299937,18.3600041 40.9100001,17.54 C42.0700059,16.7999963 43.159995,16.43 44.1800001,16.43 L46.7300001,16.43 L46.7300001,15.71 C46.7500002,13.6099895 46.1300064,12.56 44.8700001,12.56 C43.2899922,12.56 42.5000001,13.2999926 42.5000001,14.78 C42.5000001,15.2800025 42.2200029,15.53 41.6600001,15.53 C41.3199984,15.53 40.9650019,15.3750016 40.5950001,15.065 C40.2249982,14.7549984 40.0400001,14.4300017 40.0400001,14.09 C40.0400001,12.9699944 40.4399961,12.0500036 41.2400001,11.33 C42.0400041,10.6099964 42.9999945,10.25 44.1200001,10.25 C47.8800189,10.25 49.7600001,12.7999745 49.7600001,17.9 Z M46.7300001,18.98 C46.7300001,18.579998 46.4300031,18.38 45.8300001,18.38 C43.3299876,18.38 42.0800001,18.9699941 42.0800001,20.15 C42.0800001,20.7900032 42.6299946,21.11 43.7300001,21.11 C44.4100035,21.11 45.0499971,20.9200019 45.6500001,20.54 C46.3700037,20.1199979 46.7300001,19.6000031 46.7300001,18.98 Z M58.7000001,12.26 C58.7000001,12.8000027 57.8700084,13.1799989 56.2100001,13.4 C56.1699999,13.8400022 56.1500001,14.8399922 56.1500001,16.4 L56.1500001,18.38 C56.1500001,18.780002 56.2149994,19.3699961 56.3450001,20.15 C56.4750007,20.9300039 56.5400001,21.5099981 56.5400001,21.89 C56.5400001,22.2100016 56.3800017,22.4949988 56.0600001,22.745 C55.7399985,22.9950013 55.4200017,23.12 55.1000001,23.12 C54.5999976,23.12 54.1800018,22.6900043 53.8400001,21.83 C53.5799988,21.1699967 53.4500001,20.5300031 53.4500001,19.91 L53.4500001,13.55 C52.5299955,13.4099993 52.0000008,13.3200002 51.8600001,13.28 C51.3399975,13.1199992 51.0800001,12.8900015 51.0800001,12.59 C51.0800001,12.5099996 51.0999999,12.4200005 51.1400001,12.32 C51.6600027,11.5799963 52.2399969,11.21 52.8800001,11.21 L53.0600001,11.21 C53.1400005,11.2300001 53.1999999,11.24 53.2400001,11.24 C53.6600022,11.24 53.8600002,10.7500049 53.8400001,9.77 L53.8400001,7.58 C53.7199995,7.3599989 53.6600001,7.1700008 53.6600001,7.01 C53.6600001,6.7499987 53.8149985,6.51500105 54.1250001,6.305 C54.4350016,6.09499895 54.7299987,5.99 55.0100001,5.99 C55.4300022,5.99 55.8299982,6.18499805 56.2100001,6.575 C56.590002,6.96500195 56.7800001,7.3799978 56.7800001,7.82 C56.7800001,8.3000024 56.7050008,8.77499765 56.5550001,9.245 C56.4049993,9.71500235 56.34,10.1999975 56.3600001,10.7 L56.3600001,10.82 C57.9200079,10.9800008 58.7000001,11.459996 58.7000001,12.26 Z M70.3700001,17.09 C70.3700001,18.890009 69.9200046,20.4299936 69.0200001,21.71 C67.9799949,23.1700073 66.6000087,23.9 64.8800001,23.9 C63.1199913,23.9 61.7900046,23.300006 60.8900001,22.1 C60.069996,21.0399947 59.6600001,19.6000091 59.6600001,17.78 C59.6600001,15.979991 60.1099956,14.280008 61.0100001,12.68 C62.0500053,10.7799905 63.3999918,9.83 65.0600001,9.83 C65.5800027,9.83 66.2299962,10.0599977 67.0100001,10.52 C69.2500113,11.8600067 70.3700001,14.0499848 70.3700001,17.09 Z M67.7300001,17.03 C67.7300001,13.9699847 66.9900075,12.44 65.5100001,12.44 C64.4499948,12.44 63.6500028,13.0899935 63.1100001,14.39 C62.7099981,15.3700049 62.5100001,16.4799938 62.5100001,17.72 C62.5100001,20.3800133 63.2999922,21.71 64.8800001,21.71 C65.9000052,21.71 66.6599976,21.1600055 67.1600001,20.06 C67.540002,19.2199958 67.7300001,18.2100059 67.7300001,17.03 Z M91.7000001,20.06 C91.7000001,21.2800061 90.9900072,22.2199967 89.5700001,22.88 C88.4499945,23.4200027 87.200007,23.69 85.8200001,23.69 C84.5599938,23.69 83.0800086,23.4100028 81.3800001,22.85 C79.2799896,22.1299964 78.2300001,21.2900048 78.2300001,20.33 C78.2300001,19.9699982 78.3599988,19.6600013 78.6200001,19.4 C78.8800014,19.1399987 79.1899983,19.01 79.5500001,19.01 C80.0900028,19.01 80.5899978,19.2299978 81.0500001,19.67 C81.830004,20.3300033 82.2499998,20.6899997 82.3100001,20.75 C83.0100036,21.150002 84.269991,21.35 86.0900001,21.35 C87.7100082,21.35 88.5200001,20.9800037 88.5200001,20.24 C88.5200001,19.6199969 87.7600077,18.7600055 86.2400001,17.66 L83.0600001,15.62 C81.6999933,14.6999954 80.7100032,13.8300041 80.0900001,13.01 C79.269996,11.9299946 78.8600001,10.690007 78.8600001,9.29 C78.8600001,7.5299912 79.3999947,5.9600069 80.4800001,4.58 C81.6400059,3.0599924 83.0799915,2.3 84.8000001,2.3 C86.2800075,2.3 87.529995,2.70499595 88.5500001,3.515 C89.5700052,4.32500405 90.2199987,5.4599927 90.5000001,6.92 C90.5600004,7.4800028 90.6799992,8.3099945 90.8600001,9.41 C90.9400005,9.7300016 90.9800001,9.9699992 90.9800001,10.13 C90.9800001,10.8500036 90.8600013,11.4599975 90.6200001,11.96 C90.3199986,12.6400034 89.8500033,12.98 89.2100001,12.98 C88.8499983,12.98 88.5050018,12.8150016 88.1750001,12.485 C87.8449985,12.1549983 87.6800001,11.8100018 87.6800001,11.45 C87.6800001,11.1899987 87.7399995,10.8050026 87.8600001,10.295 C87.9800007,9.78499745 88.0400001,9.4000013 88.0400001,9.14 C88.0400001,6.4399865 87.1400091,5.09 85.3400001,5.09 C84.3399951,5.09 83.5000035,5.51499575 82.8200001,6.365 C82.1399967,7.21500425 81.8000001,8.1499949 81.8000001,9.17 C81.8000001,10.6100072 82.6599915,12.0099932 84.3800001,13.37 C85.960008,14.4300053 87.5499921,15.4899947 89.1500001,16.55 C90.8500086,17.7700061 91.7000001,18.9399944 91.7000001,20.06 Z M101.21,12.26 C101.21,12.8000027 100.380008,13.1799989 98.7200002,13.4 C98.68,13.8400022 98.6600002,14.8399922 98.6600002,16.4 L98.6600002,18.38 C98.6600002,18.780002 98.7249995,19.3699961 98.8550002,20.15 C98.9850008,20.9300039 99.0500002,21.5099981 99.0500002,21.89 C99.0500002,22.2100016 98.8900018,22.4949988 98.5700002,22.745 C98.2499986,22.9950013 97.9300018,23.12 97.6100002,23.12 C97.1099977,23.12 96.6900019,22.6900043 96.3500002,21.83 C96.0899989,21.1699967 95.9600002,20.5300031 95.9600002,19.91 L95.9600002,13.55 C95.0399956,13.4099993 94.5100009,13.3200002 94.3700002,13.28 C93.8499976,13.1199992 93.5900002,12.8900015 93.5900002,12.59 C93.5900002,12.5099996 93.61,12.4200005 93.6500002,12.32 C94.1700028,11.5799963 94.749997,11.21 95.3900002,11.21 L95.5700002,11.21 C95.6500006,11.2300001 95.71,11.24 95.7500002,11.24 C96.1700023,11.24 96.3700003,10.7500049 96.3500002,9.77 L96.3500002,7.58 C96.2299996,7.3599989 96.1700002,7.1700008 96.1700002,7.01 C96.1700002,6.7499987 96.3249986,6.51500105 96.6350002,6.305 C96.9450017,6.09499895 97.2399988,5.99 97.5200002,5.99 C97.9400023,5.99 98.3399983,6.18499805 98.7200002,6.575 C99.1000021,6.96500195 99.2900002,7.3799978 99.2900002,7.82 C99.2900002,8.3000024 99.2150009,8.77499765 99.0650002,9.245 C98.9149994,9.71500235 98.8500001,10.1999975 98.8700002,10.7 L98.8700002,10.82 C100.430008,10.9800008 101.21,11.459996 101.21,12.26 Z M112.88,17.09 C112.88,18.890009 112.430005,20.4299936 111.53,21.71 C110.489995,23.1700073 109.110009,23.9 107.39,23.9 C105.629991,23.9 104.300005,23.300006 103.4,22.1 C102.579996,21.0399947 102.17,19.6000091 102.17,17.78 C102.17,15.979991 102.619996,14.280008 103.52,12.68 C104.560005,10.7799905 105.909992,9.83 107.57,9.83 C108.090003,9.83 108.739996,10.0599977 109.52,10.52 C111.760011,11.8600067 112.88,14.0499848 112.88,17.09 Z M110.24,17.03 C110.24,13.9699847 109.500008,12.44 108.02,12.44 C106.959995,12.44 106.160003,13.0899935 105.62,14.39 C105.219998,15.3700049 105.02,16.4799938 105.02,17.72 C105.02,20.3800133 105.809992,21.71 107.39,21.71 C108.410005,21.71 109.169998,21.1600055 109.67,20.06 C110.050002,19.2199958 110.24,18.2100059 110.24,17.03 Z M122.96,12.68 C122.96,12.8200007 122.94,13.0399985 122.9,13.34 C122.479998,13.940003 122.040002,14.24 121.58,14.24 C121.199998,14.24 120.860002,14.0200022 120.56,13.58 C120.52,12.6799955 120.200003,12.23 119.6,12.23 C119.239998,12.23 118.800003,13.1799905 118.28,15.08 C118.039999,15.9200042 117.92,17.0899925 117.92,18.59 C117.92,20.0100071 117.989999,20.8699985 118.13,21.17 C118.290001,21.5500019 118.37,21.8099993 118.37,21.95 C118.37,22.2900017 118.215002,22.5649989 117.905,22.775 C117.594999,22.9850011 117.250002,23.09 116.87,23.09 C115.789995,23.09 115.25,22.590005 115.25,21.59 C115.25,21.4899995 115.275,21.3500009 115.325,21.17 C115.375,20.9899991 115.4,20.8600004 115.4,20.78 C115.4,19.7599949 115.350001,18.2450101 115.25,16.235 C115.15,14.22499 115.1,12.720005 115.1,11.72 C115.1,10.8199955 115.639995,10.37 116.72,10.37 C117.360003,10.37 117.799999,10.5599981 118.04,10.94 C118.600003,10.3199969 119.229997,10.01 119.93,10.01 C120.410003,10.01 120.869998,10.1399987 121.31,10.4 C121.610002,10.5600008 121.959998,10.9049974 122.36,11.435 C122.760002,11.9650027 122.96,12.3799985 122.96,12.68 Z M134.06,20.36 C134.06,21.360005 133.380007,22.1399972 132.02,22.7 C130.959995,23.1400022 129.850006,23.36 128.69,23.36 C125.609985,23.36 124.07,21.6100175 124.07,18.11 C124.07,16.6699928 124.419997,15.0700088 125.12,13.31 C125.980005,11.1499892 127.019994,10.07 128.24,10.07 C129.340006,10.07 130.524994,10.5599951 131.795,11.54 C133.065007,12.5200049 133.7,13.5399947 133.7,14.6 C133.7,15.9200066 133.110006,16.9699961 131.93,17.75 C130.889995,18.4500035 129.650007,18.8 128.21,18.8 C127.929999,18.8 127.480003,18.6300017 126.86,18.29 C126.940001,20.1900095 127.499995,21.14 128.54,21.14 C129.420005,21.14 130.284996,20.8900025 131.135,20.39 C131.985004,19.8899975 132.529999,19.64 132.77,19.64 C133.630005,19.64 134.06,19.8799976 134.06,20.36 Z M130.79,14.69 C130.79,14.1899975 130.645002,13.7150023 130.355,13.265 C130.064999,12.8149977 129.680003,12.59 129.2,12.59 C128.539997,12.59 128.030002,12.8799971 127.67,13.46 C127.369999,13.9600025 127.22,14.5499966 127.22,15.23 C127.22,15.6100019 127.349999,15.9199988 127.61,16.16 C127.870002,16.4000012 128.199998,16.52 128.6,16.52 C130.060008,16.52 130.79,15.9100061 130.79,14.69 Z" id="Potato-Store"></path>
        </g>
    </g>
</svg>