<?xml version="1.0" encoding="UTF-8"?>
<svg width="32px" height="27px" viewBox="0 0 32 27" version="1.1" xmlns="http://www.w3.org/2000/svg" xmlns:xlink="http://www.w3.org/1999/xlink">
    <!-- Generator: Sketch 48.2 (47327) - http://www.bohemiancoding.com/sketch -->
    <title>shopping-cart</title>
    <desc>Created with Sketch.</desc>
    <defs></defs>
    <g id="Products" stroke="none" stroke-width="1" fill="none" fill-rule="evenodd" transform="translate(-1327.000000, -21.000000)">
        <g id="Stacked-Group-2" transform="translate(1210.000000, 20.000000)" fill="#000000" fill-rule="nonzero">
            <g id="shopping-cart" transform="translate(117.000000, 0.000000)">
                <g id="g2991" transform="translate(16.006515, 14.490256) scale(-1, 1) rotate(-180.000000) translate(-16.006515, -14.490256) translate(0.006515, 0.990256)">
                    <path d="M12.3003003,2.45280341 C12.3003003,1.77572747 12.0600601,1.19765791 11.5795796,0.718594748 C11.0990991,0.239531583 10.5193193,0 9.84024024,0 C9.16116116,0 8.58138138,0.239531583 8.1009009,0.718594748 C7.62042042,1.19765791 7.38018018,1.77572747 7.38018018,2.45280341 C7.38018018,3.12987935 7.62042042,3.7079489 8.1009009,4.18701207 C8.58138138,4.66607523 9.16116116,4.90560681 9.84024024,4.90560681 C10.5193193,4.90560681 11.0990991,4.66607523 11.5795796,4.18701207 C12.0600601,3.7079489 12.3003003,3.12987935 12.3003003,2.45280341 Z M29.5207207,2.45280341 C29.5207207,1.77572747 29.2804805,1.19765791 28.8,0.718594748 C28.3195195,0.239531583 27.7397397,0 27.0606607,0 C26.3815816,0 25.8018018,0.239531583 25.3213213,0.718594748 C24.8408408,1.19765791 24.6006006,1.77572747 24.6006006,2.45280341 C24.6006006,3.12987935 24.8408408,3.7079489 25.3213213,4.18701207 C25.8018018,4.66607523 26.3815816,4.90560681 27.0606607,4.90560681 C27.7397397,4.90560681 28.3195195,4.66607523 28.8,4.18701207 C29.2804805,3.7079489 29.5207207,3.12987935 29.5207207,2.45280341 Z M31.9807808,23.3016324 L31.9807808,13.4904187 C31.9807808,13.1838183 31.8782783,12.9123492 31.6732733,12.6760114 C31.4682683,12.4396735 31.2056056,12.3023421 30.8852853,12.264017 L10.8204204,9.92618879 C10.8332332,9.83676366 10.8620621,9.69943222 10.9069069,9.51419446 C10.9517518,9.32895671 10.9901902,9.15968772 11.0222222,9.00638751 C11.0542543,8.8530873 11.0702703,8.7125621 11.0702703,8.58481192 C11.0702703,8.38041164 10.9165165,7.97161107 10.609009,7.35841022 L28.2906907,7.35841022 C28.6238238,7.35841022 28.9121121,7.23704755 29.1555556,6.99432221 C29.398999,6.75159688 29.5207207,6.46415898 29.5207207,6.13200852 C29.5207207,5.79985806 29.398999,5.51242016 29.1555556,5.26969482 C28.9121121,5.02696948 28.6238238,4.90560681 28.2906907,4.90560681 L8.61021021,4.90560681 C8.27707708,4.90560681 7.98878879,5.02696948 7.74534535,5.26969482 C7.5019019,5.51242016 7.38018018,5.79985806 7.38018018,6.13200852 C7.38018018,6.31085877 7.45065065,6.56316537 7.59159159,6.88892832 C7.73253253,7.21469127 7.92152152,7.59474805 8.15855856,8.02909865 C8.3955956,8.46344925 8.52692693,8.70617459 8.55255255,8.75727466 L5.15075075,24.5280341 L1.23003003,24.5280341 C0.896896897,24.5280341 0.608608609,24.6493967 0.365165165,24.8921221 C0.121721722,25.1348474 0,25.4222853 0,25.7544358 C0,26.0865862 0.121721722,26.3740241 0.365165165,26.6167495 C0.608608609,26.8594748 0.896896897,26.9808375 1.23003003,26.9808375 L6.15015015,26.9808375 C6.35515516,26.9808375 6.53773774,26.9393187 6.6978979,26.8562811 C6.85805806,26.7732434 6.98618619,26.674237 7.08228228,26.5592619 C7.17837838,26.4442867 7.26166166,26.2877928 7.33213213,26.08978 C7.4026026,25.8917672 7.45065065,25.7224982 7.47627628,25.581973 C7.5019019,25.4414478 7.53713714,25.2530163 7.58198198,25.0166785 C7.62682683,24.7803407 7.65565566,24.6174592 7.66846847,24.5280341 L30.7507508,24.5280341 C31.0838839,24.5280341 31.3721722,24.4066714 31.6156156,24.1639461 C31.8590591,23.9212207 31.9807808,23.6337828 31.9807808,23.3016324 Z" id="path2993"></path>
                </g>
            </g>
        </g>
    </g>
</svg>